<mxfile host="app.diagrams.net" agent="Mozilla/5.0 (Windows NT 10.0; Win64; x64) AppleWebKit/537.36 (KHTML, like Gecko) Chrome/131.0.0.0 Safari/537.36" version="24.8.6">
  <diagram id="C5RBs43oDa-KdzZeNtuy" name="Page-1">
    <mxGraphModel dx="1593" dy="814" grid="1" gridSize="10" guides="1" tooltips="1" connect="1" arrows="1" fold="1" page="1" pageScale="1" pageWidth="827" pageHeight="1169" math="0" shadow="0">
      <root>
        <mxCell id="WIyWlLk6GJQsqaUBKTNV-0" />
        <mxCell id="WIyWlLk6GJQsqaUBKTNV-1" parent="WIyWlLk6GJQsqaUBKTNV-0" />
        <mxCell id="Nwt_N1zq0s9evvxLgF0J-3" value="" style="edgeStyle=orthogonalEdgeStyle;rounded=0;orthogonalLoop=1;jettySize=auto;html=1;" edge="1" parent="WIyWlLk6GJQsqaUBKTNV-1" source="Nwt_N1zq0s9evvxLgF0J-0" target="Nwt_N1zq0s9evvxLgF0J-2">
          <mxGeometry relative="1" as="geometry" />
        </mxCell>
        <mxCell id="Nwt_N1zq0s9evvxLgF0J-0" value="libvlc_new()" style="rounded=0;whiteSpace=wrap;html=1;" vertex="1" parent="WIyWlLk6GJQsqaUBKTNV-1">
          <mxGeometry x="200" y="130" width="120" height="20" as="geometry" />
        </mxCell>
        <mxCell id="Nwt_N1zq0s9evvxLgF0J-6" value="" style="edgeStyle=orthogonalEdgeStyle;rounded=0;orthogonalLoop=1;jettySize=auto;html=1;" edge="1" parent="WIyWlLk6GJQsqaUBKTNV-1" source="Nwt_N1zq0s9evvxLgF0J-2" target="Nwt_N1zq0s9evvxLgF0J-5">
          <mxGeometry relative="1" as="geometry" />
        </mxCell>
        <mxCell id="Nwt_N1zq0s9evvxLgF0J-2" value="libvlc_media_new_location()" style="rounded=0;whiteSpace=wrap;html=1;" vertex="1" parent="WIyWlLk6GJQsqaUBKTNV-1">
          <mxGeometry x="160" y="210" width="200" height="20" as="geometry" />
        </mxCell>
        <mxCell id="Nwt_N1zq0s9evvxLgF0J-12" value="" style="edgeStyle=orthogonalEdgeStyle;rounded=0;orthogonalLoop=1;jettySize=auto;html=1;" edge="1" parent="WIyWlLk6GJQsqaUBKTNV-1" source="Nwt_N1zq0s9evvxLgF0J-5" target="Nwt_N1zq0s9evvxLgF0J-11">
          <mxGeometry relative="1" as="geometry" />
        </mxCell>
        <mxCell id="Nwt_N1zq0s9evvxLgF0J-5" value="libvlc_media_player_new_from_media()" style="rounded=0;whiteSpace=wrap;html=1;" vertex="1" parent="WIyWlLk6GJQsqaUBKTNV-1">
          <mxGeometry x="140" y="290" width="240" height="20" as="geometry" />
        </mxCell>
        <mxCell id="Nwt_N1zq0s9evvxLgF0J-7" value="创建vlc实例" style="text;html=1;align=center;verticalAlign=middle;resizable=0;points=[];autosize=1;strokeColor=none;fillColor=none;" vertex="1" parent="WIyWlLk6GJQsqaUBKTNV-1">
          <mxGeometry x="90" y="125" width="90" height="30" as="geometry" />
        </mxCell>
        <mxCell id="Nwt_N1zq0s9evvxLgF0J-8" value="加载多媒体文件" style="text;html=1;align=center;verticalAlign=middle;resizable=0;points=[];autosize=1;strokeColor=none;fillColor=none;" vertex="1" parent="WIyWlLk6GJQsqaUBKTNV-1">
          <mxGeometry x="25" y="208" width="110" height="30" as="geometry" />
        </mxCell>
        <mxCell id="Nwt_N1zq0s9evvxLgF0J-10" value="创建播放器" style="text;html=1;align=center;verticalAlign=middle;resizable=0;points=[];autosize=1;strokeColor=none;fillColor=none;" vertex="1" parent="WIyWlLk6GJQsqaUBKTNV-1">
          <mxGeometry x="40" y="285" width="80" height="30" as="geometry" />
        </mxCell>
        <mxCell id="Nwt_N1zq0s9evvxLgF0J-15" value="" style="edgeStyle=orthogonalEdgeStyle;rounded=0;orthogonalLoop=1;jettySize=auto;html=1;" edge="1" parent="WIyWlLk6GJQsqaUBKTNV-1" source="Nwt_N1zq0s9evvxLgF0J-11" target="Nwt_N1zq0s9evvxLgF0J-14">
          <mxGeometry relative="1" as="geometry" />
        </mxCell>
        <mxCell id="Nwt_N1zq0s9evvxLgF0J-11" value="&lt;p class=&quot;MsoNormal&quot;&gt;&lt;span style=&quot;mso-spacerun:&#39;yes&#39;;font-family:宋体;mso-ascii-font-family:Calibri;&lt;br/&gt;mso-hansi-font-family:Calibri;mso-bidi-font-family:&#39;Times New Roman&#39;;font-size:10.5000pt;&lt;br/&gt;mso-font-kerning:1.0000pt;&quot;&gt;&lt;font face=&quot;Calibri&quot;&gt;lbvlc_media_player_set_hwnd()&lt;/font&gt;&lt;/span&gt;&lt;/p&gt;" style="rounded=0;whiteSpace=wrap;html=1;" vertex="1" parent="WIyWlLk6GJQsqaUBKTNV-1">
          <mxGeometry x="140" y="365" width="240" height="20" as="geometry" />
        </mxCell>
        <mxCell id="Nwt_N1zq0s9evvxLgF0J-13" value="设置播放窗口" style="text;html=1;align=center;verticalAlign=middle;resizable=0;points=[];autosize=1;strokeColor=none;fillColor=none;" vertex="1" parent="WIyWlLk6GJQsqaUBKTNV-1">
          <mxGeometry x="25" y="360" width="100" height="30" as="geometry" />
        </mxCell>
        <mxCell id="Nwt_N1zq0s9evvxLgF0J-18" value="" style="edgeStyle=orthogonalEdgeStyle;rounded=0;orthogonalLoop=1;jettySize=auto;html=1;" edge="1" parent="WIyWlLk6GJQsqaUBKTNV-1" source="Nwt_N1zq0s9evvxLgF0J-14" target="Nwt_N1zq0s9evvxLgF0J-17">
          <mxGeometry relative="1" as="geometry" />
        </mxCell>
        <mxCell id="Nwt_N1zq0s9evvxLgF0J-14" value="&lt;p class=&quot;MsoNormal&quot;&gt;&lt;span style=&quot;mso-spacerun:&#39;yes&#39;;font-family:宋体;mso-ascii-font-family:Calibri;&lt;br/&gt;mso-hansi-font-family:Calibri;mso-bidi-font-family:&#39;Times New Roman&#39;;font-size:10.5000pt;&lt;br/&gt;mso-font-kerning:1.0000pt;&quot;&gt;&lt;font face=&quot;Calibri&quot;&gt;libvlc_media_player_play()&lt;/font&gt;&lt;/span&gt;&lt;/p&gt;" style="rounded=0;whiteSpace=wrap;html=1;" vertex="1" parent="WIyWlLk6GJQsqaUBKTNV-1">
          <mxGeometry x="140" y="450" width="240" height="20" as="geometry" />
        </mxCell>
        <mxCell id="Nwt_N1zq0s9evvxLgF0J-16" value="开始播放" style="text;html=1;align=center;verticalAlign=middle;resizable=0;points=[];autosize=1;strokeColor=none;fillColor=none;" vertex="1" parent="WIyWlLk6GJQsqaUBKTNV-1">
          <mxGeometry x="50" y="445" width="70" height="30" as="geometry" />
        </mxCell>
        <mxCell id="Nwt_N1zq0s9evvxLgF0J-26" value="" style="edgeStyle=orthogonalEdgeStyle;rounded=0;orthogonalLoop=1;jettySize=auto;html=1;" edge="1" parent="WIyWlLk6GJQsqaUBKTNV-1" source="Nwt_N1zq0s9evvxLgF0J-17" target="Nwt_N1zq0s9evvxLgF0J-25">
          <mxGeometry relative="1" as="geometry" />
        </mxCell>
        <mxCell id="Nwt_N1zq0s9evvxLgF0J-17" value="&lt;p class=&quot;MsoNormal&quot;&gt;&lt;span style=&quot;mso-spacerun:&#39;yes&#39;;font-family:宋体;mso-ascii-font-family:Calibri;&lt;br/&gt;mso-hansi-font-family:Calibri;mso-bidi-font-family:&#39;Times New Roman&#39;;font-size:10.5000pt;&lt;br/&gt;mso-font-kerning:1.0000pt;&quot;&gt;&lt;font face=&quot;Calibri&quot;&gt;libvlc_media_player_stop()&lt;/font&gt;&lt;/span&gt;&lt;span style=&quot;mso-spacerun:&#39;yes&#39;;font-family:Calibri;mso-fareast-font-family:宋体;&lt;br/&gt;mso-bidi-font-family:&#39;Times New Roman&#39;;font-size:10.5000pt;mso-font-kerning:1.0000pt;&quot;&gt;&lt;/span&gt;&lt;/p&gt;" style="rounded=0;whiteSpace=wrap;html=1;" vertex="1" parent="WIyWlLk6GJQsqaUBKTNV-1">
          <mxGeometry x="140" y="535" width="240" height="20" as="geometry" />
        </mxCell>
        <mxCell id="Nwt_N1zq0s9evvxLgF0J-20" value="停止播放" style="text;html=1;align=center;verticalAlign=middle;resizable=0;points=[];autosize=1;strokeColor=none;fillColor=none;" vertex="1" parent="WIyWlLk6GJQsqaUBKTNV-1">
          <mxGeometry x="55" y="535" width="70" height="30" as="geometry" />
        </mxCell>
        <mxCell id="Nwt_N1zq0s9evvxLgF0J-21" value="&lt;p class=&quot;MsoNormal&quot;&gt;&lt;span style=&quot;mso-spacerun:&#39;yes&#39;;font-family:宋体;mso-ascii-font-family:Calibri;&lt;br/&gt;mso-hansi-font-family:Calibri;mso-bidi-font-family:&#39;Times New Roman&#39;;font-size:10.5000pt;&lt;br/&gt;mso-font-kerning:1.0000pt;&quot;&gt;&lt;font face=&quot;Calibri&quot;&gt;libvlc_media_player_pause()&lt;/font&gt;&lt;/span&gt;&lt;/p&gt;" style="rounded=0;whiteSpace=wrap;html=1;" vertex="1" parent="WIyWlLk6GJQsqaUBKTNV-1">
          <mxGeometry x="460" y="450" width="200" height="20" as="geometry" />
        </mxCell>
        <mxCell id="Nwt_N1zq0s9evvxLgF0J-25" value="&lt;p class=&quot;MsoNormal&quot;&gt;&lt;span style=&quot;mso-spacerun:&#39;yes&#39;;font-family:宋体;mso-ascii-font-family:Calibri;&lt;br/&gt;mso-hansi-font-family:Calibri;mso-bidi-font-family:&#39;Times New Roman&#39;;font-size:10.5000pt;&lt;br/&gt;mso-font-kerning:1.0000pt;&quot;&gt;&lt;font face=&quot;Calibri&quot;&gt;libvlc_media_player_release()&lt;/font&gt;&lt;/span&gt;&lt;/p&gt;" style="rounded=0;whiteSpace=wrap;html=1;" vertex="1" parent="WIyWlLk6GJQsqaUBKTNV-1">
          <mxGeometry x="140" y="620" width="240" height="20" as="geometry" />
        </mxCell>
        <mxCell id="Nwt_N1zq0s9evvxLgF0J-30" value="" style="edgeStyle=orthogonalEdgeStyle;rounded=0;orthogonalLoop=1;jettySize=auto;html=1;" edge="1" parent="WIyWlLk6GJQsqaUBKTNV-1" target="Nwt_N1zq0s9evvxLgF0J-29">
          <mxGeometry relative="1" as="geometry">
            <mxPoint x="260" y="640" as="sourcePoint" />
          </mxGeometry>
        </mxCell>
        <mxCell id="Nwt_N1zq0s9evvxLgF0J-32" value="" style="edgeStyle=orthogonalEdgeStyle;rounded=0;orthogonalLoop=1;jettySize=auto;html=1;" edge="1" parent="WIyWlLk6GJQsqaUBKTNV-1" source="Nwt_N1zq0s9evvxLgF0J-29" target="Nwt_N1zq0s9evvxLgF0J-31">
          <mxGeometry relative="1" as="geometry" />
        </mxCell>
        <mxCell id="Nwt_N1zq0s9evvxLgF0J-29" value="&lt;p class=&quot;MsoNormal&quot;&gt;&lt;span style=&quot;mso-spacerun:&#39;yes&#39;;font-family:宋体;mso-ascii-font-family:Calibri;&lt;br/&gt;mso-hansi-font-family:Calibri;mso-bidi-font-family:&#39;Times New Roman&#39;;font-size:10.5000pt;&lt;br/&gt;mso-font-kerning:1.0000pt;&quot;&gt;&lt;font face=&quot;Calibri&quot;&gt;libvlc_media_release()&lt;/font&gt;&lt;/span&gt;&lt;/p&gt;" style="rounded=0;whiteSpace=wrap;html=1;" vertex="1" parent="WIyWlLk6GJQsqaUBKTNV-1">
          <mxGeometry x="140" y="700" width="240" height="20" as="geometry" />
        </mxCell>
        <mxCell id="Nwt_N1zq0s9evvxLgF0J-31" value="&lt;p class=&quot;MsoNormal&quot;&gt;&lt;span style=&quot;mso-spacerun:&#39;yes&#39;;font-family:宋体;mso-ascii-font-family:Calibri;&lt;br/&gt;mso-hansi-font-family:Calibri;mso-bidi-font-family:&#39;Times New Roman&#39;;font-size:10.5000pt;&lt;br/&gt;mso-font-kerning:1.0000pt;&quot;&gt;&lt;font face=&quot;Calibri&quot;&gt;libvlc_release()&lt;/font&gt;&lt;/span&gt;&lt;span style=&quot;mso-spacerun:&#39;yes&#39;;font-family:Calibri;mso-fareast-font-family:宋体;&lt;br/&gt;mso-bidi-font-family:&#39;Times New Roman&#39;;font-size:10.5000pt;mso-font-kerning:1.0000pt;&quot;&gt;&lt;/span&gt;&lt;/p&gt;" style="rounded=0;whiteSpace=wrap;html=1;" vertex="1" parent="WIyWlLk6GJQsqaUBKTNV-1">
          <mxGeometry x="140" y="778" width="240" height="20" as="geometry" />
        </mxCell>
        <mxCell id="Nwt_N1zq0s9evvxLgF0J-33" value="释放播放器" style="text;html=1;align=center;verticalAlign=middle;resizable=0;points=[];autosize=1;strokeColor=none;fillColor=none;" vertex="1" parent="WIyWlLk6GJQsqaUBKTNV-1">
          <mxGeometry x="30" y="608" width="80" height="30" as="geometry" />
        </mxCell>
        <mxCell id="Nwt_N1zq0s9evvxLgF0J-34" value="释放媒体" style="text;html=1;align=center;verticalAlign=middle;resizable=0;points=[];autosize=1;strokeColor=none;fillColor=none;" vertex="1" parent="WIyWlLk6GJQsqaUBKTNV-1">
          <mxGeometry x="45" y="698" width="70" height="30" as="geometry" />
        </mxCell>
        <mxCell id="Nwt_N1zq0s9evvxLgF0J-35" value="释放实例" style="text;html=1;align=center;verticalAlign=middle;resizable=0;points=[];autosize=1;strokeColor=none;fillColor=none;" vertex="1" parent="WIyWlLk6GJQsqaUBKTNV-1">
          <mxGeometry x="55" y="773" width="70" height="30" as="geometry" />
        </mxCell>
        <mxCell id="Nwt_N1zq0s9evvxLgF0J-36" value="" style="endArrow=classic;startArrow=classic;html=1;rounded=0;exitX=1;exitY=0.5;exitDx=0;exitDy=0;" edge="1" parent="WIyWlLk6GJQsqaUBKTNV-1" source="Nwt_N1zq0s9evvxLgF0J-14">
          <mxGeometry width="50" height="50" relative="1" as="geometry">
            <mxPoint x="410" y="510" as="sourcePoint" />
            <mxPoint x="460" y="460" as="targetPoint" />
          </mxGeometry>
        </mxCell>
        <mxCell id="Nwt_N1zq0s9evvxLgF0J-39" value="" style="edgeStyle=segmentEdgeStyle;endArrow=classic;html=1;curved=0;rounded=0;endSize=8;startSize=8;" edge="1" parent="WIyWlLk6GJQsqaUBKTNV-1" source="Nwt_N1zq0s9evvxLgF0J-21">
          <mxGeometry width="50" height="50" relative="1" as="geometry">
            <mxPoint x="570" y="480" as="sourcePoint" />
            <mxPoint x="380" y="545" as="targetPoint" />
            <Array as="points">
              <mxPoint x="570" y="545" />
            </Array>
          </mxGeometry>
        </mxCell>
        <mxCell id="Nwt_N1zq0s9evvxLgF0J-42" value="暂停播放" style="text;html=1;align=center;verticalAlign=middle;resizable=0;points=[];autosize=1;strokeColor=none;fillColor=none;" vertex="1" parent="WIyWlLk6GJQsqaUBKTNV-1">
          <mxGeometry x="525" y="410" width="70" height="30" as="geometry" />
        </mxCell>
      </root>
    </mxGraphModel>
  </diagram>
</mxfile>
